<?xml version="1.0" encoding="UTF-8"?>
<!DOCTYPE svg PUBLIC "-//W3C//DTD SVG 1.1//EN" "http://www.w3.org/Graphics/SVG/1.1/DTD/svg11.dtd">
<svg xmlns="http://www.w3.org/2000/svg" version="1.1" width="128px" height="128px" style="shape-rendering:geometricPrecision; text-rendering:geometricPrecision; image-rendering:optimizeQuality; fill-rule:evenodd; clip-rule:evenodd" xmlns:xlink="http://www.w3.org/1999/xlink">
<g><path style="opacity:0.846" fill="#cbc1c1" d="M 63.5,15.5 C 90.4916,13.7302 108.658,25.3969 118,50.5C 123.392,76.3581 114.559,95.5247 91.5,108C 63.0488,117.743 41.5488,109.576 27,83.5C 26.3333,81.8333 26.3333,80.1667 27,78.5C 28.0495,77.4829 29.2161,77.3162 30.5,78C 42.7986,103.648 62.4652,111.981 89.5,103C 111.87,90.0747 119.036,71.2414 111,46.5C 98.2793,23.8961 79.446,16.3961 54.5,24C 41.191,30.1376 32.8577,40.3042 29.5,54.5C 26.7395,55.0853 25.0728,54.0853 24.5,51.5C 30.5352,31.7927 43.5352,19.7927 63.5,15.5 Z"/></g>
<g><path style="opacity:0.911" fill="#cac0c0" d="M -0.5,65.5 C -0.5,64.5 -0.5,63.5 -0.5,62.5C 18.8797,62.9364 38.2131,62.4364 57.5,61C 63.8958,58.3919 66.8958,53.5585 66.5,46.5C 67.675,46.281 68.675,46.6143 69.5,47.5C 70.4499,57.7807 76.1166,62.7807 86.5,62.5C 86.5,63.5 86.5,64.5 86.5,65.5C 75.6276,65.3738 69.9609,70.7071 69.5,81.5C 68.5,81.5 67.5,81.5 66.5,81.5C 66.7823,74.8871 64.1157,70.0538 58.5,67C 38.8739,65.5761 19.2072,65.0761 -0.5,65.5 Z"/></g>
</svg>
